<?xml version="1.0" encoding="utf-8"?>
<!-- Generator: Adobe Illustrator 22.1.0, SVG Export Plug-In . SVG Version: 6.00 Build 0)  -->
<svg version="1.1" id="Calque_1" xmlns="http://www.w3.org/2000/svg" xmlns:xlink="http://www.w3.org/1999/xlink" x="0px" y="0px"
	 viewBox="0 0 841.9 595.3" style="enable-background:new 0 0 841.9 595.3;" xml:space="preserve">
<style type="text/css">
	.st0{clip-path:url(#SVGID_2_);fill:none;stroke:#020203;stroke-width:0.5;stroke-miterlimit:10;}
</style>
<g>
	<g>
		<defs>
			<rect id="SVGID_1_" x="29" y="147.7" width="774" height="278.4"/>
		</defs>
		<clipPath id="SVGID_2_">
			<use xlink:href="#SVGID_1_"  style="overflow:visible;"/>
		</clipPath>
		<path class="st0" d="M718.3,275.4c0,0,0.5,2.5,12.3,3.6c11.7,1.1,32.3,0,32.3,0l-11.5-15.3 M38.2,176.5c0,0,0.9-10.8-3.2-5
			l-4.1,5.8c0,0,7.9,7,10.8,11.2c0,0-6.3-3.1,3.1,27.9s19.1,67.4,34.2,100.4c15.1,32.8,53.7,102.5,58,108.7 M94.4,391.1
			c0,0,21.3-2.9,53.9-3.2c32.4-0.5,84.9-0.5,169.8-4.3s106-3.8,207.2-12.1c101.3-8.3,176.1-18.2,205.4-23.1
			c29.2-5,34.1-5.9,34.1-5.9 M153.5,229.5c0,0,9,5.9,16.6,7.2c7.6,1.3,12.8-3.6,12.8-3.6 M735.8,207.5l20,71.5 M651.8,277.6v-19.3
			c0,0,1.3-5,6.5-4.7c5,0.5,7.9,1.4,11.7,9s5,12.4,2.7,15c-2.3,2.5-2.7,3.4-7.7,3.2c-5.2-0.2-8.7,0-8.7,0S653.8,280.9,651.8,277.6z
			 M608.4,274.5v-18.7c0,0-1.6-4.9,9.6-4.3c11,0.5,13.5-0.9,13.7,8.8c0.2,9.7,1.8,18.7-2.9,18.9c-4.7,0-15.5,0-15.5,0
			S608.4,280.1,608.4,274.5z M557,274.5c0,0-2.7-4.1-0.9-8.1c1.8-4.1,5.8-15.3,11.9-16c6.1-0.7,15.9-1.4,16.8,0
			c0.7,1.4,1.4,2.5,1.3,9.2c-0.2,6.7,3.2,16.9-2.2,18c-5.4,1.1-18.9,0-18.9,0S560.3,278.2,557,274.5z M313.4,246.6l46.9,9
			 M574.5,159.4c0,0-0.2-7.6,0-7.9c0.2-0.5,0.2-2.5,2.3-2.5s2.3,0.7,2.3,3.4v5.2l1.3,1.8 M564.8,180.7l10.6-19.3h-3.8v-2.2h9v2.2
			l-3.1,0.2l-11.9,39.6 M550.2,205.2l14.4-24.5c0,0-18.9,2.2-29.6,5.6c-10.6,3.2-11,2.5-16.8,6.7c-5.6,4.1-10.6,9.9-10.6,9.9
			L550.2,205.2z M379.9,209.1v-6.3l63.8-1.6h59.1c0,0,7.6-9.6,15.9-12.4c8.3-2.9,11.4-6.7,13.2-7.7c1.8-1.1,10.8-6.7,20.5-8.7
			c9.7-2,17.5-3.1,17.5-3.1 M783.5,283.7c0,0,5.2,0.4,5.4,0.7 M796.7,290c0,0,0.7-2.2,1.8-3.1c1.3-0.9,2.9-2.5-0.9-2.7
			c-3.8-0.2-5-0.4-6.8,0c-1.8,0.4-2.5,0.9-0.5,2.2c2,1.1,3.1,0.7,3.2,2.3 M385.3,275.3c0,0,18,3.4,32.3,4.3
			c14.2,0.9,103.4,10.3,138.8,12.1c35.3,1.8,114.8,2.9,143.1,2.3c28.3-0.5,69.4-2,79.1-2.9c9.9-0.9,9-5.8,4.9-7.4
			c-4.1-1.6-10.8-3.1-10.8-3.1s-3.1-0.7-9.7-1.6 M365.1,272.7c0,0-1.8-2.9,1.8-3.2c3.6-0.4,5.8-0.9,5.9,1.6l0.2,2.5 M348.9,270.4
			c0,0,3.6-1.6,3.6-2.7c0-1.1-1.8-1.3-1.8-1.3 M213.7,240.3l95,16.8c0,0,2.7,0.4,4,2c1.3,1.6,1.8,5.8,1.8,5.8l35.5,5.8 M351.6,266.6
			L351.6,266.6c0,0-7-3.1-8.1-5.9l-0.9-2.7c0,0,17.8,5.9,29.2,6.8c11.4,0.9,26.9,0.7,27.2,1.8c0.4,1.1,9.6,1.3,0,3.1
			s-14.4,1.4-14.4,1.4s-0.5,2.5,0.7,4.1 M121.4,211.1c0,0-4.7-4.9,0-5.2c4.7-0.4,13.2-1.3,15,0c1.8,1.3,6.5,0,5,5.2s-5,6.3-3.8,10.8
			c1.4,4.5-1.8,3.8,6.5,5.8c8.5,1.8,6.1,2.9,17.7,0c11.7-2.9,13.5-1.8,16.8,0c3.2,1.8,1.8,5.4,7,5.4c5,0,30.8,6.5,30.8,6.5
			s6.1-3.2,13.5-3.6c7.4-0.2,32.3,3.8,52.6,7.2c20.5,3.4,30.6,3.4,30.6,3.4l13.5-8.5l-1.3-2.9c0,0,16.6-25.2,49.4-26.1
			s63.4,0,63.4,0s56,2.7,71.7,18.6l15.7,15.9l143.6,1.8c0,0,3.1-2.5-5.6-9.9c-8.7-7.6-16.9-12.8-40.2-17.1 M333.2,250v-12.4
			c0,0,4.7-4.9,12.1-9.9c7.4-5,9-5.8,9-5.8 M394.1,262.8v-46.5h52.3 M364.2,225.3h16.6 M364.2,230.8h17.7 M364.2,237.6h16.6
			 M364.2,243.4h16.6 M450.1,227.7h11.5 M450.1,234h10.5 M450.1,240.5h10.5 M450.1,246.6l10.5,0.2 M467.8,216.3v48.5 M470.9,264.6
			l0.9-48.3h-4h-21.4l-1.8,48.3 M419.7,277.6l-1.8-3.6c-1.8-3.2-35.5-13.5-38-14.2c-29.6-6.7-24.9-4.5-24.9-4.5v-39.1h33.9
			l-0.4,45.1l7.7,1.8c0,0,49.6,3.1,68.7,2c19.1-1.1,55.5-11.9,61.1-21.6 M621.7,217.4c0,0,0.2-4.5-8.5-4.9c-8.7-0.4-14.4-2-16.9,0
			c-2.3,2-2.2,3.6-2.2,3.6l-10.6-0.4c0,0,1.3-4.3-2.9-4.3s-14.2,0-15.1,0s-3.2,1.1-3.4,2.9c-0.2,2-10.6,0-10.6,0s1.8-4.3-3.2-4.9
			c-5-0.4-14.4,0-14.4,0s-4.5,0-5.2,2c-0.7,2-3.2,3.4-8.8,2.7l-5.6-0.9v-2.3c0,0,5.9,1.1,7-0.5c1.1-1.6,2.2-3.1,5.8-3.1
			c3.6,0.2,90.8,4,90.8,4 M574.5,168.8c11.7-3.1,56.4-2.7,73.7-2.3c17.3,0.4,47.6,8.7,53.9,11.5c6.3,3.1,29.6,4.3,35.5,7.4
			c5.9,3.1,3.6,5.6,3.6,5.6s-19.8,59.1-24.3,71c-4.7,11.9,0.4,7.6,1.4,13.5c1.1,5.9-24-15.9-24-15.9s-0.4-8.8-3.1-10.1
			c-2.7-1.3-4.5-2.2-7.2,0c-2.7,2.2-13.2,0-13.2,0l-1.8-4.1 M718.3,242.6l12.3-45.1l-24.7-8.3L718.3,242.6z M673.6,230
			c0,0,2.5-3.1,2.5-9.9c0-7-1.3-13-1.3-13l24.9-17.8l15.5,54.4c0,0,0,7.6-2.2,12.6c-2.2,5-2.5,6.3-1.1,9.6
			c1.4,3.2-13.3-11.5-13.3-11.5s0.7-9.4-4.1-12.3c-4.9-3.1-7.7-3.8-10.6-3.6C681,238.7,673.6,230,673.6,230z M666.9,238.5
			c0,0-3.6-1.8,0-11.7c3.6-9.9,9.2-25.2-3.8-32.4c-13-7.2-38.7-14.6-66.3-16.2c-27.6-1.6-19.6-6.7-25.4,6.7
			c-5.6,13.3-6.7,19.8-6.7,19.8s0.4,0,1.3,0.2c7.9,0.9,51.7,5.6,66.3,9.7c16.2,4.7,25,10.8,27.2,9.9c4.7-2.2,8.5-3.6,6.3-13.7
			c-2.3-10.1,1.1-19.8-32.4-24.7c-33.5-5-51-5.9-52.8-5.8c-1.8,0-2.7-1.1-4.7,3.8c-2,4.7-8.8,20.2-8.8,20.2 M790.2,300.3l-33.9,55.9
			c-21.6,7.2-92.6,19.5-150.5,27.4c-57.8,7.9-159.1,13.3-195.2,15.7c-35.9,2.3-137.3,4.9-137.3,4.9s-76.4,3.1-109.7,3.6
			s-53.3,2.5-53.3,2.5l-15.7-19.1c0,0-54.1-113.2-49.7-208.5v-16.2 M110.3,216.3l11.2,4.5 M73.5,194.5l35.1,19.5
			c0,0,2.7-4.9,8.8-2.3c6.1,2.3,7.2,5,7,7.6c-0.4,2.7,5.9,4.7,5.9,4.7l8.3,2.2 M797.4,300.3v58 M798.1,289.3c4.7,5,4.1,6.1,2.3,8.3
			c-1.6,2.2-17.1,3.6-25.2,4.5c-8.1,0.9-21.8,1.3-82.4,4.3c-60.6,2.9-151.6-4-217.3-9.9c-65.8-5.9-263.5-44.3-331.4-62
			c-29.7-7.7-53.7-19.8-71.4-31c-22.5-14.2-34.6-27-34.6-27l6.5-10.1l29.2,4.5l-0.4,31"/>
	</g>
</g>
</svg>
